# xmcd
#
# Track frame offsets: 
#        150
#        13835
#        22618
#        33382
#        45201
#        53381
#        66384
#        74110
#        82171
#        92747
#
# Disc length: 1387 seconds
#
# Revision: 0
# Processed by: cddbd v1.5.2PL0 Copyright (c) Steve Scherf et al.
# Submitted via: ExactAudioCopy v0.95b3
#
DISCID=7a05690a
DTITLE=Dave Clark Five  - You Got What It Takes  FLAC
DYEAR=1900
DGENRE=
TTITLE0=You Got What It Takes
TTITLE1=I've Got To Have A reason
TTITLE2=You Don't Play Me Around
TTITLE3=Thinking Of You, Baby
TTITLE4=Lovin' So Good
TTITLE5=Doctor Rhythm
TTITLE6=Play With Me
TTITLE7=Let Me Be
TTITLE8=Blueberry Hill
TTITLE9=Tabatha Twitchit
EXTD=
EXTT0=
EXTT1=
EXTT2=
EXTT3=
EXTT4=
EXTT5=
EXTT6=
EXTT7=
EXTT8=
EXTT9=
PLAYORDER=
